<svg width="778" height="242" viewBox="0 0 778 242" fill="none" xmlns="http://www.w3.org/2000/svg">
<path d="M378.465 6.38165C382.063 3.02628 386.805 1.14851 391.739 1.1257C396.673 1.10288 401.433 2.9367 405.063 6.25866C406.83 7.90821 408.226 9.91076 409.158 12.1347C410.091 14.3586 410.54 16.7535 410.474 19.162C410.552 21.541 410.121 23.9093 409.209 26.1104C408.297 28.3115 406.926 30.2955 405.186 31.9311C403.419 33.6436 401.328 34.9908 399.034 35.8947C396.74 36.7987 394.288 37.2415 391.82 37.1976C386.863 37.296 382.066 35.4525 378.465 32.0653C376.707 30.4103 375.306 28.4165 374.349 26.2057C373.392 23.9949 372.899 21.6134 372.899 19.2067C372.899 16.8 373.392 14.4186 374.349 12.2078C375.306 9.99695 376.707 8.00316 378.465 6.34811V6.38165ZM405.94 52.7285V185.496H376.957V52.7285H405.94Z" fill="#F3F3F8"/>
<path d="M435.183 10.1383H464.21V70.7639C475.132 57.3984 489.499 50.6336 507.313 50.4696H508.067C526.384 50.4696 541.929 57.1076 554.703 70.3837C567.477 83.6597 573.853 99.9026 573.83 119.112C573.83 138.158 567.529 154.315 554.928 167.584C542.327 180.852 526.444 187.49 507.28 187.498C489.473 187.498 475.105 180.986 464.177 167.964V185.496H435.183V10.1383ZM475.012 148.922C478.859 152.882 483.471 156.032 488.57 158.184C493.669 160.335 499.152 161.444 504.692 161.444C510.232 161.444 515.715 160.335 520.814 158.184C525.913 156.032 530.524 152.882 534.372 148.922C538.31 145.016 541.42 140.366 543.519 135.246C545.617 130.126 546.662 124.64 546.591 119.112C546.656 113.567 545.609 108.064 543.511 102.925C541.413 97.7856 538.306 93.1131 534.372 89.1796C530.599 85.1217 526.008 81.8992 520.898 79.7222C515.788 77.5452 510.274 76.4625 504.714 76.5446C499.125 76.4861 493.584 77.5808 488.443 79.7595C483.301 81.9382 478.67 85.1535 474.843 89.202C470.843 93.1003 467.677 97.7606 465.533 102.904C463.389 108.047 462.312 113.568 462.365 119.135C462.313 124.695 463.409 130.207 465.584 135.33C467.759 140.453 470.967 145.079 475.012 148.922V148.922Z" fill="#F3F3F8"/>
<path d="M597.514 185.496V10.1383H626.497V116.865L686.499 52.7282H721.029L664.064 113.354L723.043 185.496H689.019L646.67 131.893L626.497 153.137V185.451L597.514 185.496Z" fill="#F3F3F8"/>
<path d="M745.229 6.38193C746.995 4.67235 749.084 3.32767 751.377 2.42563C753.669 1.5236 756.119 1.0821 758.584 1.12668C761.021 1.07168 763.445 1.49688 765.716 2.37776C767.987 3.25863 770.06 4.57773 771.815 6.25893C773.584 7.90793 774.981 9.91011 775.916 12.134C776.85 14.3578 777.301 16.753 777.238 19.1623C777.313 21.542 776.88 23.9106 775.966 26.1117C775.053 28.3128 773.68 30.2963 771.939 31.9314C770.175 33.6445 768.086 34.9923 765.793 35.8963C763.5 36.8004 761.05 37.2428 758.584 37.1979C753.627 37.2963 748.83 35.4528 745.229 32.0656C743.47 30.4106 742.07 28.4168 741.113 26.2059C740.156 23.9951 739.663 21.6137 739.663 19.207C739.663 16.8003 740.156 14.4189 741.113 12.208C742.07 9.99723 743.47 8.00343 745.229 6.34839V6.38193ZM772.704 52.7288V185.497H743.71V52.7288H772.704Z" fill="#F3F3F8"/>
<path d="M320.196 50.7386V62.289C308.344 53.0905 294.565 48.4874 278.859 48.48C260.611 48.4889 243.112 55.6962 230.207 68.5188C217.303 81.3413 210.048 98.7302 210.036 116.865C209.9 125.883 211.619 134.833 215.085 143.168C218.552 151.503 223.695 159.046 230.198 165.337C243.647 178.754 259.867 185.463 278.859 185.463C297.671 185.463 313.797 178.754 327.239 165.337C338.595 153.999 345.151 140.719 346.906 125.497V50.7386H320.196ZM278.859 159.198C273.333 159.287 267.85 158.217 262.769 156.057C257.688 153.897 253.122 150.696 249.37 146.664C241.604 138.684 237.263 128.017 237.263 116.916C237.263 105.814 241.604 95.1475 249.37 87.1676C253.187 83.2455 257.76 80.1265 262.816 77.9965C267.871 75.8664 273.306 74.7687 278.797 74.7687C284.288 74.7687 289.723 75.8664 294.778 77.9965C299.834 80.1265 304.407 83.2455 308.224 87.1676C315.93 95.1862 320.219 105.855 320.194 116.943C320.169 128.031 315.832 138.68 308.089 146.664C304.384 150.675 299.87 153.865 294.841 156.026C289.813 158.188 284.382 159.272 278.904 159.209L278.859 159.198Z" fill="#F3F3F8"/>
<path d="M315.695 192.351C314.131 197.157 311.43 201.521 307.819 205.075C300.926 211.784 292.015 215.138 281.086 215.138C273.294 215.178 265.618 213.254 258.775 209.548C251.775 205.75 246.505 199.432 244.048 191.892H215.144C218.999 208.247 227.152 220.688 239.603 229.216C251.875 237.686 266.495 242.152 281.435 241.996C300.097 241.996 315.77 235.984 328.454 223.961C337.332 215.47 343.356 204.462 345.702 192.44L315.695 192.351Z" fill="#F3F3F8"/>
<path d="M187.59 216.648C180.232 209.939 169.532 208.038 162.837 200.39C157.291 194.017 156.334 185.441 155.029 177.435C153.702 169.149 151.755 160.942 150.045 152.713C145.912 132.884 141.49 113.13 136.78 93.4512C131.458 71.0884 126.924 47.9653 116.292 27.2909C107.909 10.966 90.414 -3.14491 72.4122 0.612036C60.1822 3.15021 50.72 13.3924 46.0621 24.9092C46.0058 25.021 45.9833 25.1217 45.927 25.2558C45.5557 26.1839 45.207 27.1343 44.8582 28.0847C41.2691 38.7071 40.729 50.2239 40.5715 61.4724V62.1321C40.5615 62.8435 40.6142 63.5543 40.729 64.2566C40.8072 64.6966 40.9513 65.1225 41.1566 65.5201C41.4822 66.2213 41.9769 66.832 42.5967 67.2979C42.9418 67.5587 43.3202 67.773 43.7218 67.9352C45.5452 68.4755 47.4661 68.6091 49.3474 68.3266C51.5976 68.1141 53.9041 67.7228 55.9855 67.7228C56.7828 67.7222 57.5781 67.8009 58.3595 67.9576C63.9176 69.0758 68.4855 73.7831 70.7358 79.0719C73.2673 85.1099 73.4248 91.8411 73.8861 98.371C76.1276 130.569 86.0634 161.771 102.869 189.388C105.344 193.446 109.338 197.997 113.918 196.723C117.383 195.772 119.059 192.015 120.173 188.65C124.358 175.862 126.359 162.467 126.091 149.023C126.598 172.157 127.374 196.376 138.794 216.581C144.228 226.163 154.545 231.117 165.121 232.995C173.324 234.426 192.822 234.236 193.519 226.51C193.823 224.028 192.113 220.785 187.59 216.648ZM65.504 41.8826C63.3062 41.8759 61.1849 41.08 59.5309 39.6417C57.8768 38.2034 56.8016 36.2196 56.5031 34.0556C56.4294 33.6273 56.3955 33.1931 56.4018 32.7586C56.4003 31.5669 56.6358 30.3867 57.0947 29.2857C57.5535 28.1847 58.2268 27.1847 59.0757 26.3431C59.9247 25.5015 60.9326 24.8349 62.0415 24.3816C63.1505 23.9283 64.3387 23.6972 65.5378 23.7016C67.9578 23.7016 70.2787 24.657 71.9899 26.3576C73.7011 28.0582 74.6624 30.3647 74.6624 32.7697C74.6624 35.1748 73.7011 37.4813 71.9899 39.1819C70.2787 40.8825 67.9578 41.8379 65.5378 41.8379L65.504 41.8826Z" fill="#F3F3F8"/>
<path d="M70.4204 200.658C70.4204 200.658 44.3516 213.416 44.3516 223.86C44.3516 234.303 116.359 229.272 116.359 229.272C116.359 229.272 81.6715 212.231 70.4204 200.658Z" fill="#F3F3F8"/>
<path d="M60.4185 43.0005L58.4496 67.9686C57.6681 67.8119 56.8728 67.7332 56.0756 67.7338C53.9941 67.7338 51.6764 68.1251 49.4374 68.3376C47.8173 68.1587 46.1858 67.9127 44.5882 67.6555C43.9244 67.5437 43.2606 67.4095 42.6192 67.3089L40.7516 66.9064C39.9077 66.7275 39.0751 66.5374 38.2538 66.3249C24.5956 62.8626 11.6502 57.0581 0 49.1727C13.2651 35.9898 31.6494 30.4326 44.8582 28.0957C45.207 28.0957 45.5783 27.9727 45.9271 27.9168C50.2381 27.1871 54.5885 26.7093 58.9559 26.4856C57.2766 28.1682 56.3378 30.4444 56.3456 32.8143C56.3393 33.2488 56.3732 33.683 56.4469 34.1113C56.3738 34.5585 56.3399 35.0112 56.3456 35.4643C56.3452 36.9571 56.7169 38.4267 57.4277 39.7418C58.1384 41.0569 59.166 42.1765 60.4185 43.0005V43.0005Z" fill="#F3F3F8"/>
</svg>
