<svg width="273" height="85" viewBox="0 0 273 85" fill="none" xmlns="http://www.w3.org/2000/svg">
<path d="M132.932 2.24147C134.196 1.06293 135.861 0.403382 137.594 0.395368C139.327 0.387354 140.999 1.03146 142.274 2.19827C142.895 2.77765 143.385 3.48103 143.713 4.26215C144.04 5.04328 144.198 5.88447 144.175 6.73042C144.202 7.56603 144.051 8.39786 143.73 9.17099C143.41 9.94411 142.929 10.6409 142.318 11.2155C141.697 11.8169 140.962 12.2901 140.157 12.6076C139.351 12.9251 138.489 13.0807 137.623 13.0652C135.882 13.0998 134.197 12.4523 132.932 11.2626C132.314 10.6813 131.822 9.98097 131.486 9.20444C131.15 8.42792 130.977 7.59146 130.977 6.74614C130.977 5.90081 131.15 5.06435 131.486 4.28783C131.822 3.5113 132.314 2.811 132.932 2.22968V2.24147ZM142.582 18.5203V65.1537H132.402V18.5203H142.582Z" fill="#242324"/>
<path d="M152.853 3.5611H163.049V24.8552C166.885 20.1607 171.931 17.7846 178.188 17.727H178.453C184.887 17.727 190.347 20.0586 194.834 24.7217C199.32 29.3847 201.56 35.0899 201.552 41.837C201.552 48.5266 199.339 54.2017 194.913 58.8621C190.487 63.5226 184.908 65.8541 178.177 65.8567C171.922 65.8567 166.876 63.5697 163.037 58.9956V65.1537H152.853V3.5611ZM166.843 52.3074C168.194 53.6985 169.814 54.8048 171.605 55.5604C173.396 56.3161 175.322 56.7055 177.268 56.7055C179.213 56.7055 181.139 56.3161 182.93 55.5604C184.721 54.8048 186.341 53.6985 187.693 52.3074C189.076 50.9356 190.168 49.3024 190.905 47.504C191.642 45.7057 192.009 43.7787 191.984 41.837C192.007 39.8892 191.639 37.9564 190.902 36.1514C190.166 34.3463 189.074 32.7051 187.693 31.3235C186.367 29.8982 184.755 28.7664 182.96 28.0017C181.165 27.2371 179.228 26.8568 177.276 26.8856C175.312 26.8651 173.366 27.2496 171.56 28.0148C169.754 28.7801 168.128 29.9094 166.783 31.3314C165.379 32.7006 164.267 34.3375 163.513 36.144C162.76 37.9506 162.382 39.8896 162.401 41.8449C162.383 43.7979 162.767 45.7339 163.531 47.5334C164.295 49.3329 165.422 50.9576 166.843 52.3074Z" fill="#242324"/>
<path d="M209.87 65.1537V3.5611H220.05V41.0476L241.125 18.5204H253.254L233.246 39.8145L253.961 65.1537H242.011L227.136 46.326L220.05 53.788V65.138L209.87 65.1537Z" fill="#242324"/>
<path d="M261.754 2.2415C262.374 1.64102 263.108 1.16872 263.913 0.851888C264.719 0.535057 265.579 0.379986 266.445 0.395643C267.301 0.376327 268.152 0.525675 268.95 0.835072C269.748 1.14447 270.476 1.60779 271.092 2.19829C271.713 2.77749 272.204 3.48073 272.532 4.26184C272.861 5.04294 273.019 5.88423 272.997 6.73045C273.023 7.56632 272.871 8.39826 272.55 9.17136C272.229 9.94447 271.747 10.6412 271.136 11.2155C270.516 11.8172 269.782 12.2906 268.977 12.6081C268.172 12.9257 267.311 13.0811 266.445 13.0653C264.704 13.0998 263.019 12.4523 261.754 11.2626C261.136 10.6813 260.645 9.981 260.308 9.20447C259.972 8.42795 259.799 7.59149 259.799 6.74616C259.799 5.90084 259.972 5.06438 260.308 4.28786C260.645 3.51133 261.136 2.81103 261.754 2.22971V2.2415ZM271.404 18.5204V65.1537H261.22V18.5204H271.404Z" fill="#242324"/>
<path d="M112.465 17.8213V21.8783C108.303 18.6474 103.463 17.0306 97.9463 17.028C91.5368 17.0311 85.3906 19.5626 80.858 24.0664C76.3254 28.5702 73.7771 34.6778 73.7729 41.0477C73.7253 44.215 74.3288 47.3587 75.5465 50.2862C76.7642 53.2136 78.5705 55.8633 80.8546 58.0727C85.5783 62.7855 91.2756 65.1419 97.9463 65.1419C104.554 65.1419 110.218 62.7855 114.939 58.0727C118.928 54.0904 121.231 49.426 121.847 44.0796V17.8213H112.465ZM97.9463 55.9166C96.0054 55.9478 94.0797 55.5718 92.2949 54.8132C90.5101 54.0546 88.9064 52.9304 87.5885 51.514C84.8609 48.7112 83.3361 44.9646 83.3361 41.0653C83.3361 37.1661 84.8609 33.4195 87.5885 30.6166C88.9295 29.239 90.5356 28.1435 92.3112 27.3953C94.0869 26.6472 95.9959 26.2616 97.9245 26.2616C99.8532 26.2616 101.762 26.6472 103.538 27.3953C105.314 28.1435 106.92 29.239 108.261 30.6166C110.967 33.4331 112.474 37.1802 112.465 41.0748C112.456 44.9694 110.933 48.7098 108.213 51.514C106.912 52.9228 105.326 54.0433 103.56 54.8025C101.794 55.5617 99.8863 55.9427 97.9621 55.9205L97.9463 55.9166Z" fill="#242324"/>
<path d="M110.885 67.5612C110.335 69.2494 109.387 70.782 108.118 72.0305C105.697 74.3869 102.567 75.5651 98.7287 75.5651C95.9916 75.5789 93.2956 74.9033 90.8922 73.6015C88.4335 72.2677 86.5824 70.0485 85.7193 67.4002H75.567C76.9212 73.1446 79.7849 77.5144 84.1583 80.5097C88.4687 83.4847 93.6036 85.0534 98.8512 84.9986C105.406 84.9986 110.911 82.887 115.366 78.6638C118.484 75.6815 120.6 71.815 121.424 67.5926L110.885 67.5612Z" fill="#242324"/>
<path d="M65.889 76.0953C63.3045 73.7389 59.5463 73.0712 57.195 70.3849C55.2467 68.1463 54.9108 65.1341 54.4524 62.3221C53.9861 59.4119 53.3024 56.5292 52.7017 53.6387C51.2501 46.6742 49.697 39.7359 48.0425 32.8237C46.1733 24.9691 44.5807 16.8473 40.8462 9.58563C37.9021 3.8517 31.7569 -1.10462 25.434 0.214971C21.1384 1.10648 17.8149 4.70393 16.1788 8.7491C16.159 8.78838 16.1511 8.82372 16.1314 8.87085C16.001 9.19682 15.8785 9.53065 15.7559 9.86447C14.4953 13.5955 14.3056 17.6406 14.2503 21.5915V21.8232C14.2468 22.0731 14.2653 22.3228 14.3056 22.5694C14.3331 22.724 14.3837 22.8736 14.4558 23.0132C14.5702 23.2596 14.7439 23.474 14.9616 23.6377C15.0828 23.7293 15.2157 23.8046 15.3568 23.8615C15.9972 24.0513 16.6719 24.0982 17.3327 23.999C18.1231 23.9244 18.9332 23.7869 19.6643 23.7869C19.9443 23.7867 20.2237 23.8144 20.4982 23.8694C22.4504 24.2621 24.0548 25.9155 24.8452 27.7732C25.7343 29.8939 25.7897 32.2582 25.9517 34.5518C26.739 45.8608 30.2289 56.8202 36.1316 66.5204C37.001 67.946 38.4039 69.5445 40.0123 69.0967C41.2295 68.7629 41.8183 67.4433 42.2096 66.2612C43.6796 61.7696 44.3822 57.065 44.2882 52.3427C44.4661 60.4684 44.7387 68.975 48.7499 76.0717C50.6586 79.4375 54.2824 81.1773 57.9972 81.8371C60.8781 82.3398 67.7266 82.273 67.9716 79.5592C68.0783 78.6873 67.4776 77.5484 65.889 76.0953ZM23.0076 14.7108C22.2356 14.7085 21.4905 14.4289 20.9096 13.9237C20.3286 13.4186 19.9509 12.7217 19.8461 11.9617C19.8202 11.8112 19.8083 11.6587 19.8105 11.5061C19.81 11.0875 19.8927 10.673 20.0539 10.2863C20.2151 9.89959 20.4515 9.54835 20.7497 9.25275C21.0479 8.95714 21.4019 8.723 21.7914 8.56378C22.1809 8.40456 22.5983 8.3234 23.0194 8.32495C23.8694 8.32495 24.6846 8.66052 25.2857 9.25783C25.8867 9.85515 26.2244 10.6653 26.2244 11.51C26.2244 12.3548 25.8867 13.1649 25.2857 13.7622C24.6846 14.3595 23.8694 14.6951 23.0194 14.6951L23.0076 14.7108Z" fill="#242324"/>
<path d="M24.7344 70.4792C24.7344 70.4792 15.578 74.9603 15.578 78.6284C15.578 82.2966 40.8698 80.5293 40.8698 80.5293C40.8698 80.5293 28.6862 74.544 24.7344 70.4792Z" fill="#242324"/>
<path d="M21.2214 15.1036L20.5298 23.8733C20.2553 23.8183 19.976 23.7907 19.696 23.7908C18.9649 23.7908 18.1508 23.9283 17.3644 24.0029C16.7953 23.9401 16.2223 23.8537 15.6611 23.7634C15.428 23.7241 15.1948 23.677 14.9696 23.6416L14.3136 23.5002C14.0172 23.4374 13.7247 23.3706 13.4363 23.296C8.63895 22.0799 4.092 20.0411 0 17.2715C4.65922 12.6411 11.1165 10.6892 15.756 9.8684C15.8785 9.8684 16.0089 9.82519 16.1314 9.80556C17.6456 9.54927 19.1737 9.38142 20.7076 9.30286C20.1178 9.89386 19.7881 10.6933 19.7908 11.5257C19.7886 11.6784 19.8005 11.8309 19.8264 11.9813C19.8007 12.1384 19.7888 12.2974 19.7908 12.4565C19.7907 12.9808 19.9212 13.497 20.1709 13.959C20.4205 14.4209 20.7814 14.8141 21.2214 15.1036Z" fill="#242324"/>
</svg>
