<svg width="1128" height="695" viewBox="0 0 1128 695" fill="none" xmlns="http://www.w3.org/2000/svg">
<g clip-path="url(#clip0)">
<path d="M113.856 637.879C118.539 639.517 123.567 639.927 128.455 639.07C133.344 638.214 137.928 636.118 141.767 632.986C151.543 624.821 154.608 611.372 157.101 598.917L164.478 562.074L149.035 572.655C137.928 580.265 126.572 588.12 118.883 599.142C111.194 610.164 107.839 625.212 114.015 637.139" fill="#0AE6B0"/>
<path d="M116.241 685.049C114.297 670.957 112.297 656.682 113.664 642.439C114.875 629.789 118.753 617.436 126.649 607.303C130.84 601.936 135.939 597.337 141.718 593.714C143.225 592.767 144.612 595.143 143.112 596.086C133.112 602.374 125.378 611.66 121.024 622.605C116.215 634.776 115.443 648.044 116.271 660.973C116.772 668.792 117.836 676.559 118.904 684.317C118.989 684.668 118.936 685.038 118.757 685.351C118.578 685.665 118.286 685.899 117.94 686.007C117.587 686.102 117.21 686.054 116.893 685.874C116.575 685.695 116.341 685.397 116.242 685.047L116.241 685.049Z" fill="#242324"/>
<path d="M130.232 662.436C132.24 665.475 135 667.947 138.247 669.615C141.494 671.284 145.119 672.092 148.771 671.961C158.158 671.518 165.981 665.001 173.022 658.812L193.854 640.508L180.067 639.852C170.153 639.379 159.982 638.936 150.539 641.982C141.095 645.028 132.386 652.347 130.66 662.075" fill="#0AE6B0"/>
<path d="M110.746 693.15C120.104 676.673 130.958 658.36 150.353 652.507C155.745 650.885 161.399 650.304 167.011 650.795C168.779 650.947 168.338 653.66 166.572 653.509C157.166 652.732 147.778 655.203 139.988 660.508C132.492 665.585 126.655 672.645 121.716 680.13C118.69 684.716 115.979 689.496 113.269 694.269C112.403 695.795 109.87 694.693 110.746 693.15Z" fill="#242324"/>
<path d="M1051.44 657.496C1048.71 659.922 1045.41 661.611 1041.84 662.398C1038.27 663.185 1034.56 663.044 1031.07 661.989C1022.1 659.173 1016.22 650.883 1011 643.108L995.558 620.114L1009.06 622.986C1018.76 625.051 1028.71 627.209 1037.06 632.556C1045.4 637.902 1051.94 647.194 1051.12 657.037" fill="#0AE6B0"/>
<path d="M1062.39 692.145C1057.57 673.835 1051.78 653.37 1034.53 642.778C1029.74 639.839 1024.42 637.839 1018.87 636.887C1017.12 636.584 1016.85 639.319 1018.59 639.622C1027.89 641.263 1036.33 646.04 1042.5 653.15C1048.44 659.965 1052.27 668.275 1055.12 676.768C1056.87 681.971 1058.27 687.281 1059.66 692.585C1060.11 694.281 1062.84 693.86 1062.39 692.145Z" fill="#242324"/>
<path d="M872.749 424.014H557.238C554.718 424.011 552.303 423.014 550.521 421.241C548.74 419.468 547.738 417.064 547.735 414.557V308.637C547.738 306.129 548.74 303.726 550.521 301.953C552.303 300.18 554.718 299.182 557.238 299.18H872.749C875.268 299.182 877.684 300.18 879.465 301.953C881.247 303.726 882.249 306.129 882.252 308.637V414.557C882.249 417.064 881.247 419.468 879.465 421.241C877.684 423.014 875.268 424.011 872.749 424.014Z" fill="#0C1135"/>
<path d="M680.781 327.551H597.152V337.008H680.781V327.551Z" fill="#0AE6B0"/>
<path d="M791.02 338.9C794.169 338.9 796.722 336.359 796.722 333.225C796.722 330.091 794.169 327.551 791.02 327.551C787.871 327.551 785.318 330.091 785.318 333.225C785.318 336.359 787.871 338.9 791.02 338.9Z" fill="#0AE6B0"/>
<path d="M810.027 338.9C813.176 338.9 815.729 336.359 815.729 333.225C815.729 330.091 813.176 327.551 810.027 327.551C806.877 327.551 804.325 330.091 804.325 333.225C804.325 336.359 806.877 338.9 810.027 338.9Z" fill="#0AE6B0"/>
<path d="M829.033 338.9C832.182 338.9 834.735 336.359 834.735 333.225C834.735 330.091 832.182 327.551 829.033 327.551C825.884 327.551 823.331 330.091 823.331 333.225C823.331 336.359 825.884 338.9 829.033 338.9Z" fill="#0AE6B0"/>
<path d="M872.749 558.305H557.238C554.718 558.302 552.303 557.305 550.521 555.532C548.74 553.759 547.738 551.356 547.735 548.848V442.928C547.738 440.421 548.74 438.017 550.521 436.244C552.303 434.471 554.718 433.474 557.238 433.471H872.749C875.268 433.474 877.684 434.471 879.465 436.244C881.247 438.017 882.249 440.421 882.252 442.928V548.848C882.249 551.356 881.247 553.759 879.465 555.532C877.684 557.305 875.268 558.303 872.749 558.305Z" fill="#0C1135"/>
<path d="M680.781 461.842H597.152V471.3H680.781V461.842Z" fill="#0AE6B0"/>
<path d="M791.02 473.191C794.169 473.191 796.722 470.651 796.722 467.517C796.722 464.383 794.169 461.842 791.02 461.842C787.871 461.842 785.318 464.383 785.318 467.517C785.318 470.651 787.871 473.191 791.02 473.191Z" fill="#0AE6B0"/>
<path d="M810.027 473.191C813.176 473.191 815.729 470.651 815.729 467.517C815.729 464.383 813.176 461.842 810.027 461.842C806.877 461.842 804.325 464.383 804.325 467.517C804.325 470.651 806.877 473.191 810.027 473.191Z" fill="#0AE6B0"/>
<path d="M829.033 473.191C832.182 473.191 834.735 470.651 834.735 467.517C834.735 464.383 832.182 461.842 829.033 461.842C825.884 461.842 823.331 464.383 823.331 467.517C823.331 470.651 825.884 473.191 829.033 473.191Z" fill="#0AE6B0"/>
<path d="M872.749 692.597H557.238C554.718 692.594 552.303 691.597 550.521 689.824C548.74 688.051 547.738 685.647 547.735 683.14V577.22C547.738 574.712 548.74 572.309 550.521 570.536C552.303 568.763 554.718 567.766 557.238 567.763H872.749C875.268 567.766 877.684 568.763 879.465 570.536C881.247 572.309 882.249 574.712 882.252 577.22V683.14C882.249 685.647 881.247 688.051 879.465 689.824C877.684 691.597 875.268 692.594 872.749 692.597Z" fill="#0C1135"/>
<path d="M680.781 596.134H597.152V605.591H680.781V596.134Z" fill="#0AE6B0"/>
<path d="M791.02 607.483C794.169 607.483 796.722 604.942 796.722 601.808C796.722 598.674 794.169 596.134 791.02 596.134C787.871 596.134 785.318 598.674 785.318 601.808C785.318 604.942 787.871 607.483 791.02 607.483Z" fill="#0AE6B0"/>
<path d="M810.027 607.483C813.176 607.483 815.729 604.942 815.729 601.808C815.729 598.674 813.176 596.134 810.027 596.134C806.877 596.134 804.325 598.674 804.325 601.808C804.325 604.942 806.877 607.483 810.027 607.483Z" fill="#0AE6B0"/>
<path d="M829.033 607.483C832.182 607.483 834.735 604.942 834.735 601.808C834.735 598.674 832.182 596.134 829.033 596.134C825.884 596.134 823.331 598.674 823.331 601.808C823.331 604.942 825.884 607.483 829.033 607.483Z" fill="#0AE6B0"/>
<path d="M753.805 195.749L753.456 195.493L753.447 195.487C752.997 195.154 752.486 194.913 751.942 194.777C751.398 194.641 750.833 194.613 750.279 194.694C749.724 194.776 749.191 194.965 748.71 195.252C748.229 195.538 747.809 195.916 747.475 196.364L676.458 291.518H668.644V289.691C668.644 289.241 668.465 288.808 668.144 288.49C667.824 288.171 667.39 287.992 666.937 287.992H662.275C661.822 287.992 661.388 288.171 661.068 288.49C660.748 288.808 660.568 289.241 660.568 289.691V291.518H657.87V289.691C657.87 289.241 657.69 288.808 657.37 288.49C657.049 288.171 656.615 287.992 656.162 287.992H651.501C651.048 287.992 650.613 288.171 650.293 288.49C649.973 288.808 649.793 289.241 649.793 289.691V291.518H647.104V289.691C647.104 289.241 646.924 288.808 646.604 288.49C646.283 288.171 645.849 287.992 645.396 287.992H640.735C640.282 287.992 639.848 288.171 639.527 288.49C639.207 288.808 639.027 289.241 639.027 289.691V291.518H636.329V289.691C636.329 289.241 636.149 288.808 635.829 288.49C635.509 288.171 635.074 287.992 634.622 287.992H629.96C629.507 287.992 629.073 288.171 628.753 288.49C628.432 288.808 628.252 289.241 628.252 289.691V291.518H625.563V289.691C625.563 289.241 625.383 288.808 625.063 288.49C624.743 288.171 624.308 287.992 623.856 287.992H619.194C618.97 287.992 618.748 288.036 618.541 288.121C618.333 288.207 618.145 288.332 617.986 288.49C617.828 288.647 617.702 288.835 617.616 289.041C617.531 289.247 617.486 289.468 617.486 289.691V291.518H614.788V289.691C614.788 289.241 614.609 288.808 614.288 288.49C613.968 288.171 613.534 287.992 613.081 287.992H608.419C607.967 287.992 607.532 288.171 607.212 288.49C606.892 288.808 606.712 289.241 606.712 289.691V291.518H604.014V289.691C604.014 289.241 603.834 288.808 603.514 288.49C603.193 288.171 602.759 287.992 602.306 287.992H597.645C597.192 287.992 596.757 288.171 596.437 288.49C596.117 288.808 595.937 289.241 595.937 289.691V291.518H593.248V289.691C593.248 289.241 593.068 288.808 592.748 288.49C592.427 288.171 591.993 287.992 591.54 287.992H586.879C586.426 287.992 585.992 288.171 585.671 288.49C585.351 288.808 585.171 289.241 585.171 289.691V291.518H582.473V289.691C582.473 289.241 582.293 288.808 581.973 288.49C581.653 288.171 581.218 287.992 580.766 287.992H576.104C575.651 287.992 575.217 288.171 574.897 288.49C574.576 288.808 574.396 289.241 574.396 289.691V291.518H571.707V289.691C571.707 289.241 571.527 288.808 571.207 288.49C570.887 288.171 570.452 287.992 570 287.992H565.338C564.885 287.992 564.451 288.171 564.131 288.49C563.81 288.808 563.63 289.241 563.63 289.691V291.518H560.25C559.689 291.518 559.134 291.628 558.616 291.841C558.098 292.055 557.627 292.368 557.231 292.762C556.835 293.157 556.52 293.625 556.306 294.14C556.091 294.656 555.981 295.208 555.981 295.766V299.819C555.981 300.377 556.091 300.929 556.306 301.444C556.52 301.96 556.835 302.428 557.231 302.823C557.627 303.217 558.098 303.53 558.616 303.744C559.134 303.957 559.689 304.067 560.25 304.067H675.749C677.212 304.067 678.63 303.565 679.764 302.646C680.899 301.727 681.68 300.447 681.977 299.022L682.021 299.054L754.68 201.701L754.687 201.693C755.362 200.788 755.648 199.654 755.482 198.539C755.317 197.425 754.713 196.421 753.805 195.749Z" fill="#3F3D56"/>
<path d="M304.982 656.514L319.329 663.821L354.474 612.23L333.301 601.447L304.982 656.514Z" fill="#FFB7B7"/>
<path d="M303.72 649.99L331.973 664.378L331.975 664.379C336.749 666.811 340.358 671.031 342.007 676.111C343.655 681.191 343.208 686.714 340.765 691.466L340.465 692.049L294.206 668.49L303.72 649.99Z" fill="#242324"/>
<path d="M470.677 676.502H486.793L494.46 614.643H470.674L470.677 676.502Z" fill="#FFB7B7"/>
<path d="M466.566 671.267L498.304 671.265H498.306C503.67 671.265 508.814 673.386 512.607 677.161C516.4 680.935 518.531 686.055 518.532 691.393V692.047L466.567 692.049L466.566 671.267Z" fill="#242324"/>
<path d="M411.496 158.668C411.496 158.668 400.704 150.44 400.704 170.538L399 236.953L418.028 299.695L429.104 279.347L424.56 235.258L411.496 158.668Z" fill="#353448"/>
<path d="M510.736 353.587C510.736 353.587 523.251 414.237 507.399 464.01L498.639 655.381L466.518 652.89L455.255 510.919L444.41 440.348L421.884 504.692L347.631 640.851L313.425 614.284C313.425 614.284 351.331 511.357 379.334 489.747L393.379 330.562L510.736 353.587Z" fill="#242324"/>
<path d="M513.003 369.807L390.75 361.957L399.952 324.021L511.687 348.877L513.003 369.807Z" fill="#CECECE"/>
<path d="M445.328 115.164L451.762 105C451.762 105 458.953 107.781 478.211 118.689L479.571 128.212L513 362.177L452.238 359.194L435.692 358.794L430.277 344.982L423.6 358.501L407.441 358.11L391 347.264L407.203 290.866L412.445 239.348L404.344 190.813C404.344 190.813 394.149 146.245 433.414 122.214L445.328 115.164Z" fill="#242423"/>
<path d="M600.839 288.709C599.066 289.157 597.215 289.213 595.417 288.873C593.62 288.533 591.919 287.804 590.435 286.739C588.951 285.674 587.719 284.298 586.828 282.708C585.936 281.118 585.405 279.352 585.273 277.536L542.307 266.084L559.591 250.811L597.742 264.028C600.823 264.01 603.804 265.116 606.119 267.138C608.435 269.16 609.925 271.958 610.307 275C610.688 278.042 609.936 281.118 608.191 283.644C606.446 286.171 603.83 287.973 600.839 288.709V288.709Z" fill="#FFB7B7"/>
<path d="M581.596 282.243C580.692 282.733 579.695 283.028 578.67 283.109C577.644 283.19 576.613 283.055 575.643 282.713L504.963 256.018C487.72 249.935 473.284 237.827 464.341 221.945L434.866 169.621C432.796 167.322 431.203 164.64 430.176 161.727C429.149 158.814 428.71 155.728 428.883 152.646C429.056 149.565 429.838 146.547 431.184 143.766C432.53 140.985 434.414 138.496 436.728 136.44C439.042 134.385 441.741 132.804 444.67 131.787C447.599 130.771 450.7 130.339 453.797 130.517C456.894 130.695 459.925 131.478 462.717 132.823C465.509 134.168 468.007 136.047 470.068 138.354L521.084 218.82L585.287 256.279C586.545 257.1 587.52 258.287 588.079 259.677C588.637 261.068 588.754 262.596 588.411 264.054L585.219 277.518C584.876 278.962 584.099 280.267 582.991 281.26C582.567 281.641 582.098 281.971 581.596 282.243Z" fill="#242423"/>
<path d="M510.839 100.158C520.541 82.4392 514.019 60.2235 496.27 50.5377C478.522 40.8519 456.269 47.3638 446.567 65.0823C436.865 82.8008 443.388 105.016 461.136 114.702C478.884 124.388 501.137 117.876 510.839 100.158Z" fill="#FFB7B7"/>
</g>
<path d="M474.479 93.0994C478.869 93.6697 482.181 89.1852 483.717 85.0398C485.253 80.8945 486.423 76.0684 490.24 73.8291C495.455 70.7699 502.128 74.4494 508.091 73.44C514.826 72.3001 519.205 65.1746 519.548 58.3639C519.891 51.5531 517.176 45.0026 514.512 38.7231L513.582 46.5271C513.707 43.8821 513.149 41.2496 511.963 38.8812C510.777 36.5128 509.002 34.4879 506.808 33L508.007 44.4511C507.752 42.8712 507.187 41.3572 506.344 39.996C505.501 38.6347 504.398 37.4529 503.096 36.5185C501.795 35.5842 500.322 34.9155 498.761 34.551C497.2 34.1865 495.583 34.1333 494.001 34.3944L494.19 41.2174C486.412 40.294 478.565 39.3693 470.763 40.0728C462.962 40.7763 455.106 43.2405 449.193 48.3699C440.348 56.0426 437.117 68.6767 438.202 80.3244C439.286 91.972 444.103 102.914 449.122 113.484C450.385 116.144 452.132 119.145 455.061 119.484C457.692 119.788 460.1 117.592 460.918 115.077C461.548 112.496 461.523 109.799 460.847 107.23C460.106 103.304 459.174 99.2914 459.869 95.3573C460.565 91.4233 463.4 87.5357 467.372 87.0535C471.345 86.5714 475.41 91.1044 473.5 94.615L474.479 93.0994Z" fill="#2F2E41"/>
<defs>
<clipPath id="clip0">
<rect width="1025" height="625" fill="white" transform="translate(65 70)"/>
</clipPath>
</defs>
</svg>
