<svg width="665" height="206" viewBox="0 0 665 206" fill="none" xmlns="http://www.w3.org/2000/svg">
<path d="M272.285 148.64C271.564 148.64 270.863 148.789 270.243 149.139L250.618 160.464C249.349 161.195 248.577 162.577 248.577 164.045V186.655C248.577 188.123 249.349 189.502 250.618 190.235L255.743 193.186C258.234 194.413 259.152 194.394 260.285 194.394C263.972 194.394 266.076 192.158 266.076 188.273V165.967C266.076 165.652 265.803 165.426 265.493 165.426H263.035C262.72 165.426 262.452 165.657 262.452 165.967V188.284C262.452 190.007 260.656 191.739 257.744 190.283L252.416 187.16C252.228 187.058 252.082 186.871 252.082 186.661V164.052C252.082 163.837 252.226 163.619 252.416 163.511L271.999 152.226C272.183 152.121 272.401 152.121 272.582 152.226L292.165 163.511C292.352 163.622 292.499 163.831 292.499 164.052V186.661C292.499 186.877 292.391 187.098 292.207 187.202L272.583 198.487C272.409 198.587 272.177 198.587 272 198.487L266.958 195.489C266.808 195.401 266.603 195.408 266.458 195.489C265.067 196.277 264.805 196.369 263.5 196.821C263.179 196.933 262.69 197.107 263.667 197.654L270.25 201.532C270.877 201.894 271.575 202.073 272.292 202.073C273.019 202.073 273.707 201.899 274.334 201.532L293.958 190.247C295.228 189.509 296 188.135 296 186.667V164.057C296 162.589 295.228 161.21 293.958 160.476L274.334 149.151C273.719 148.801 273.014 148.652 272.292 148.652L272.285 148.64ZM277.535 164.796C271.946 164.796 268.618 167.172 268.618 171.124C268.618 175.407 271.921 176.59 277.285 177.12C283.701 177.748 284.202 178.689 284.202 179.951C284.202 182.14 282.455 183.074 278.327 183.074C273.14 183.074 272 181.78 271.619 179.197C271.573 178.92 271.36 178.697 271.077 178.697H268.529C268.376 178.701 268.229 178.763 268.121 178.872C268.012 178.98 267.949 179.126 267.946 179.28C267.946 182.58 269.742 186.483 278.321 186.483C284.531 186.483 288.112 184.052 288.112 179.779C288.112 175.555 285.219 174.413 279.196 173.616C273.116 172.806 272.53 172.418 272.53 170.993C272.53 169.817 273.022 168.244 277.529 168.244C281.556 168.244 283.044 169.112 283.654 171.825C283.708 172.08 283.932 172.288 284.196 172.288H286.744C286.9 172.288 287.052 172.192 287.161 172.08C287.267 171.96 287.343 171.825 287.328 171.663C286.934 166.991 283.816 164.793 277.536 164.793L277.535 164.796Z" fill="#F3F3F8"/>
<path d="M156.912 119.001C156.693 119.001 156.478 119.059 156.287 119.167C156.098 119.278 155.941 119.436 155.831 119.626C155.722 119.816 155.664 120.031 155.663 120.25V152.102C155.663 152.415 155.517 152.695 155.246 152.852C155.113 152.929 154.962 152.97 154.808 152.97C154.654 152.97 154.503 152.929 154.371 152.852L149.162 149.854C148.782 149.635 148.351 149.519 147.912 149.519C147.473 149.519 147.042 149.635 146.662 149.854L125.872 161.845C125.095 162.293 124.621 163.155 124.621 164.052V188.035C124.62 188.473 124.736 188.905 124.955 189.285C125.175 189.665 125.491 189.98 125.871 190.199L146.662 202.191C147.042 202.411 147.473 202.527 147.912 202.527C148.351 202.527 148.783 202.411 149.162 202.191L169.953 190.199C170.334 189.98 170.65 189.665 170.869 189.285C171.089 188.905 171.204 188.473 171.204 188.035V128.244C171.204 127.334 170.707 126.481 169.912 126.038L157.538 119.125C157.343 119.017 157.128 118.998 156.912 119V119.001ZM23.1654 148.938C22.7687 148.954 22.3964 149.023 22.0402 149.229L1.24969 161.22C0.868828 161.439 0.552618 161.754 0.333143 162.135C0.113668 162.515 -0.00126361 162.946 1.04789e-05 163.385L0.0422841 195.571C0.0422841 196.019 0.273921 196.435 0.667702 196.654C1.05396 196.885 1.53286 196.885 1.91738 196.654L14.2503 189.575C15.0321 189.112 15.5417 188.304 15.5417 187.411V172.379C15.5417 171.482 16.0136 170.661 16.7925 170.215L22.0425 167.176C22.4219 166.955 22.8534 166.84 23.2922 166.842C23.7313 166.84 24.163 166.955 24.5425 167.176L29.7902 170.213C30.5679 170.659 31.0399 171.482 31.0399 172.378V187.408C31.0399 188.303 31.561 189.116 32.3312 189.573L44.6641 196.651C45.0521 196.883 45.5299 196.883 45.9138 196.651C46.296 196.431 46.5392 196.016 46.5392 195.569L46.5809 163.384C46.5834 162.945 46.469 162.513 46.2494 162.133C46.0298 161.752 45.7129 161.437 45.3313 161.219L24.5407 149.229C24.1892 149.023 23.8151 148.953 23.4156 148.937H23.1665L23.1654 148.938ZM209.994 149.229C209.555 149.228 209.124 149.343 208.744 149.563L187.953 161.554C187.177 162.003 186.702 162.823 186.702 163.719V187.701C186.702 188.603 187.21 189.42 187.993 189.866L208.618 201.613C209.379 202.047 210.308 202.08 211.076 201.654L223.575 194.7C223.972 194.48 224.24 194.069 224.241 193.618C224.243 193.166 224.008 192.76 223.616 192.536L202.699 180.544C202.308 180.321 202.033 179.869 202.033 179.42V171.92C202.033 171.472 202.311 171.062 202.699 170.838L209.199 167.091C209.586 166.867 210.061 166.867 210.45 167.091L216.952 170.838C217.143 170.948 217.301 171.105 217.411 171.295C217.52 171.485 217.578 171.701 217.577 171.92V177.833C217.577 178.052 217.634 178.268 217.744 178.458C217.854 178.648 218.012 178.806 218.202 178.915C218.592 179.14 219.064 179.141 219.453 178.915L231.91 171.672C232.683 171.222 233.161 170.4 233.161 169.507V163.72C233.161 163.282 233.046 162.851 232.826 162.471C232.607 162.09 232.291 161.775 231.911 161.555L211.245 149.564C210.865 149.344 210.434 149.229 209.995 149.23L209.994 149.229ZM147.829 167.134C147.945 167.133 148.06 167.162 148.162 167.217L155.287 171.339C155.48 171.45 155.62 171.657 155.62 171.88V180.124C155.62 180.348 155.481 180.554 155.287 180.665L148.162 184.787C147.968 184.897 147.731 184.897 147.537 184.787L140.412 180.665C140.218 180.553 140.079 180.347 140.079 180.124V171.879C140.079 171.655 140.219 171.45 140.412 171.338L147.537 167.216C147.634 167.16 147.72 167.133 147.829 167.133V167.133V167.134Z" fill="#F3F3F8"/>
<path d="M85.6226 149.104C85.1836 149.103 84.7521 149.218 84.3718 149.437L63.5807 161.387C62.8035 161.835 62.331 162.698 62.331 163.594V187.576C62.3298 188.015 62.4448 188.447 62.6643 188.827C62.8837 189.207 63.1999 189.522 63.5807 189.741L84.3718 201.732C84.7515 201.953 85.1827 202.069 85.6217 202.069C86.0608 202.069 86.492 201.953 86.8717 201.732L107.663 189.741C108.043 189.522 108.359 189.206 108.579 188.826C108.798 188.446 108.914 188.015 108.913 187.576V163.593C108.913 162.696 108.441 161.834 107.662 161.387L86.8711 149.437C86.4912 149.216 86.0594 149.101 85.6203 149.103L85.6226 149.104ZM209.953 170.506C209.871 170.506 209.779 170.506 209.703 170.546L205.703 172.878C205.629 172.92 205.567 172.98 205.523 173.053C205.479 173.126 205.455 173.209 205.453 173.294V177.875C205.453 178.047 205.553 178.205 205.703 178.291L209.703 180.581C209.772 180.624 209.851 180.646 209.932 180.646C210.013 180.646 210.092 180.624 210.161 180.581L214.161 178.291C214.309 178.206 214.411 178.047 214.411 177.875V173.294C214.411 173.122 214.309 172.964 214.161 172.878L210.161 170.546C210.087 170.502 210.036 170.505 209.952 170.505L209.953 170.506Z" fill="#F3F3F8"/>
<path d="M636.812 116L636.205 118.048V177.475L636.812 178.077L664.624 161.771L636.812 116Z" fill="#F3F3F8"/>
<path d="M636.812 116L609 161.771L636.812 178.077V149.233V116Z" fill="#F3F3F8"/>
<path d="M636.812 183.3L636.47 183.714V204.883L636.812 205.875L664.641 167.003L636.812 183.3Z" fill="#F3F3F8"/>
<path d="M636.812 205.875V183.299L609 167.002L636.812 205.875Z" fill="#F3F3F8"/>
<path d="M636.812 178.077L664.624 161.771L636.812 149.233V178.077Z" fill="#F3F3F8"/>
<path d="M609 161.771L636.812 178.077V149.233L609 161.771Z" fill="#F3F3F8"/>
<path d="M376.193 126.601C376.193 126.25 376.262 125.902 376.397 125.577C376.531 125.253 376.728 124.958 376.977 124.709C377.225 124.461 377.52 124.264 377.845 124.13C378.169 123.995 378.517 123.926 378.869 123.926C379.22 123.926 379.568 123.995 379.892 124.13C380.217 124.264 380.512 124.461 380.76 124.709C381.009 124.958 381.206 125.253 381.34 125.577C381.475 125.902 381.544 126.25 381.544 126.601C381.544 127.31 381.262 127.991 380.76 128.492C380.259 128.994 379.578 129.276 378.869 129.276C378.159 129.276 377.479 128.994 376.977 128.492C376.475 127.991 376.193 127.31 376.193 126.601V126.601ZM344.274 150.818C344.274 150.467 344.343 150.119 344.478 149.794C344.612 149.47 344.809 149.175 345.058 148.926C345.306 148.678 345.601 148.481 345.926 148.347C346.25 148.212 346.598 148.143 346.949 148.143C347.301 148.143 347.649 148.212 347.973 148.347C348.298 148.481 348.593 148.678 348.841 148.926C349.09 149.175 349.287 149.47 349.421 149.794C349.556 150.119 349.625 150.467 349.625 150.818C349.625 151.527 349.343 152.208 348.841 152.709C348.339 153.211 347.659 153.493 346.949 153.493C346.24 153.493 345.559 153.211 345.058 152.709C344.556 152.208 344.274 151.527 344.274 150.818V150.818ZM408.112 150.942C408.112 150.232 408.394 149.552 408.896 149.05C409.398 148.549 410.078 148.267 410.788 148.267C411.497 148.267 412.178 148.549 412.68 149.05C413.181 149.552 413.463 150.232 413.463 150.942C413.463 151.651 413.181 152.331 412.68 152.833C412.178 153.335 411.497 153.616 410.788 153.616C410.078 153.616 409.398 153.335 408.896 152.833C408.394 152.331 408.112 151.651 408.112 150.942V150.942ZM352.016 154.615C352.607 154.351 353.07 153.864 353.302 153.259C353.535 152.655 353.518 151.984 353.257 151.392L352.07 148.708H356.74V169.747H347.318C346.155 165.664 345.793 161.395 346.252 157.174L352.016 154.615ZM371.546 155.132V148.931H382.664C383.238 148.931 386.715 149.594 386.715 152.193C386.715 154.353 384.042 155.13 381.848 155.13L371.546 155.132ZM356.365 188.521C356.365 188.17 356.435 187.822 356.569 187.498C356.704 187.173 356.901 186.878 357.149 186.63C357.397 186.382 357.692 186.185 358.017 186.05C358.342 185.916 358.689 185.847 359.041 185.847C359.392 185.847 359.74 185.916 360.065 186.05C360.389 186.185 360.684 186.382 360.933 186.63C361.181 186.878 361.378 187.173 361.513 187.498C361.647 187.822 361.716 188.17 361.716 188.521C361.716 189.231 361.434 189.911 360.933 190.413C360.431 190.914 359.75 191.196 359.041 191.196C358.331 191.196 357.651 190.914 357.149 190.413C356.647 189.911 356.365 189.231 356.365 188.521V188.521ZM396.013 188.645C396.013 187.936 396.295 187.255 396.796 186.754C397.298 186.252 397.978 185.97 398.688 185.97C399.398 185.97 400.078 186.252 400.58 186.754C401.082 187.255 401.363 187.936 401.363 188.645C401.363 189.355 401.082 190.035 400.58 190.537C400.078 191.038 399.398 191.32 398.688 191.32C397.978 191.32 397.298 191.038 396.796 190.537C396.295 190.035 396.013 189.355 396.013 188.645ZM396.84 182.578C395.518 182.297 394.223 183.135 393.942 184.454L392.6 190.721C388.281 192.677 383.591 193.677 378.85 193.654C374.109 193.632 369.429 192.586 365.129 190.589L363.787 184.322C363.505 183 362.211 182.162 360.889 182.446L355.355 183.633C354.327 182.574 353.371 181.448 352.494 180.261H379.417C379.721 180.261 379.924 180.204 379.924 179.929V170.408C379.924 170.127 379.721 170.076 379.417 170.076H371.54V164.04H380.056C380.832 164.04 384.211 164.265 385.294 168.58L386.884 175.611C387.39 177.158 389.452 180.261 391.646 180.261H405.544C404.611 181.508 403.591 182.688 402.492 183.791L396.84 182.578ZM411.789 157.439C411.979 159.339 412.002 161.252 411.86 163.157H408.484C408.146 163.157 408.006 163.382 408.006 163.711V165.264C408.006 168.92 405.946 169.708 404.14 169.913C402.424 170.11 400.511 169.193 400.28 168.141C399.268 162.437 397.58 161.222 394.935 159.112C398.246 157.008 401.693 153.909 401.693 149.755C401.693 145.271 398.618 142.447 396.522 141.064C393.582 139.123 390.327 138.737 389.449 138.737H354.466C359.299 133.339 365.776 129.685 372.896 128.339L377.018 132.662C377.946 133.638 379.493 133.675 380.467 132.741L385.08 128.333C389.78 129.213 394.232 131.105 398.127 133.878C402.021 136.651 405.266 140.238 407.634 144.391L404.478 151.518C404.216 152.11 404.2 152.782 404.432 153.386C404.665 153.99 405.127 154.478 405.718 154.741L411.789 157.439ZM419.661 157.551L419.554 156.449L422.806 153.417C423.467 152.798 423.22 151.56 422.376 151.245L418.221 149.693L417.894 148.624L420.482 145.024C421.011 144.292 420.525 143.125 419.638 142.979L415.255 142.267L414.729 141.283L416.572 137.241C416.949 136.417 416.248 135.365 415.343 135.399L410.898 135.554L410.194 134.701L411.215 130.37C411.421 129.489 410.529 128.598 409.649 128.803L405.316 129.824L404.461 129.121L404.616 124.677C404.649 123.777 403.597 123.074 402.776 123.448L398.736 125.29L397.751 124.761L397.037 120.379C396.896 119.491 395.723 119.007 394.991 119.536L391.39 122.123L390.321 121.8L388.769 117.645C388.453 116.802 387.213 116.554 386.597 117.212L383.564 120.464L382.461 120.357L380.121 116.574C379.648 115.809 378.376 115.809 377.907 116.574L375.566 120.357L374.463 120.464L371.425 117.207C370.806 116.548 369.568 116.793 369.253 117.64L367.7 121.794L366.631 122.118L363.03 119.53C362.299 119.001 361.128 119.488 360.985 120.374L360.27 124.756L359.286 125.285L355.246 123.442C354.424 123.068 353.369 123.771 353.406 124.671L353.561 129.115L352.705 129.819L348.373 128.798C347.492 128.592 346.601 129.484 346.806 130.364L347.827 134.696L347.124 135.548L342.679 135.393C341.779 135.365 341.075 136.411 341.45 137.236L343.292 141.277L342.763 142.262L338.38 142.973C337.491 143.114 337.007 144.287 337.536 145.018L340.124 148.618L339.798 149.687L335.643 151.24C334.799 151.555 334.551 152.795 335.213 153.411L338.465 156.443L338.358 157.546L334.574 159.886C333.809 160.358 333.809 161.63 334.574 162.099L338.358 164.44L338.465 165.542L335.204 168.585C334.546 169.204 334.791 170.442 335.635 170.757L339.79 172.309L340.116 173.378L337.528 176.978C337.002 177.71 337.486 178.88 338.372 179.023L342.752 179.735L343.281 180.719L341.438 184.758C341.064 185.579 341.77 186.634 342.668 186.6L347.113 186.446L347.816 187.301L346.795 191.632C346.589 192.51 347.481 193.404 348.362 193.196L352.694 192.175L353.549 192.878L353.395 197.322C353.361 198.222 354.413 198.925 355.234 198.551L359.274 196.709L360.259 197.238L360.974 201.617C361.114 202.509 362.287 202.99 363.019 202.467L366.62 199.873L367.689 200.2L369.242 204.354C369.557 205.198 370.797 205.445 371.414 204.784L374.446 201.533L375.549 201.645L377.89 205.428C378.362 206.188 379.628 206.193 380.104 205.428L382.444 201.645L383.547 201.533L386.58 204.784C387.199 205.445 388.437 205.198 388.752 204.354L390.305 200.2L391.374 199.873L394.975 202.467C395.706 202.993 396.876 202.509 397.02 201.617L397.734 197.238L398.719 196.709L402.759 198.551C403.58 198.925 404.632 198.225 404.599 197.322L404.444 192.878L405.296 192.175L409.629 193.196C410.509 193.401 411.401 192.51 411.196 191.632L410.175 187.301L410.878 186.446L415.323 186.6C416.223 186.637 416.926 185.579 416.552 184.758L414.71 180.719L415.236 179.735L419.619 179.023C420.511 178.883 420.997 177.712 420.463 176.978L417.874 173.378L418.201 172.309L422.356 170.757C423.2 170.439 423.448 169.201 422.786 168.585L419.534 165.553L419.641 164.451L423.425 162.111C424.19 161.638 424.193 160.372 423.425 159.897L419.661 157.551Z" fill="#F3F3F8"/>
<path d="M520.961 116L508.961 136.784L496.961 116H457L508.961 206L560.922 116H520.961Z" fill="#F3F3F8"/>
<path d="M520.961 116L508.961 136.784L496.961 116H477.784L508.961 169.999L540.138 116H520.961Z" fill="#B2B2C0"/>
<g clip-path="url(#clip0)">
<path d="M178.789 67.3764V45.3974C178.789 40.8038 176.894 38.5062 173.105 38.5049C169.316 38.5035 167.417 40.8011 167.409 45.3974V67.3764H156.214V45.3974C156.214 40.8038 154.348 38.5062 150.617 38.5049C146.821 38.5049 144.927 40.8024 144.934 45.3974V67.3764H133.737V44.1001C133.737 39.3048 135.401 35.6755 138.73 33.2122C141.661 31.0128 145.624 29.9131 150.617 29.9131C155.68 29.9131 159.41 31.2117 161.806 33.809C163.871 31.2117 167.635 29.9131 173.097 29.9131C178.09 29.9131 182.051 31.0128 184.98 33.2122C188.309 35.6741 189.974 39.3034 189.976 44.1001V67.3764H178.789Z" fill="#F3F3F8"/>
<path d="M315.908 67.2748V4.48682H327.105V67.2748H315.908Z" fill="#F3F3F8"/>
<path d="M301.638 67.2748V63.5758C300.638 64.9076 298.939 65.9742 296.541 66.7754C294.582 67.4758 292.521 67.847 290.441 67.8738C285.109 67.8738 280.827 66.0405 277.595 62.3739C274.364 58.7074 272.747 54.1733 272.746 48.7716C272.746 43.4423 274.321 38.9657 277.496 35.3723C280.307 32.195 284.875 29.974 290.14 29.974C296.072 29.974 299.535 32.2072 301.638 34.7713V4.48682H312.534V67.2748H301.638ZM301.638 46.38C301.638 44.3796 300.69 42.4624 298.796 40.6285C296.901 38.7945 294.952 37.8775 292.95 37.8775C290.086 37.8775 287.821 39.0442 286.153 41.3776C284.685 43.4484 283.952 45.9814 283.953 48.9766C283.953 51.911 284.686 54.4108 286.153 56.4762C287.818 58.8786 290.083 60.0785 292.95 60.0757C294.683 60.0757 296.566 59.2589 298.599 57.6253C300.632 55.9917 301.647 54.3093 301.644 52.5782L301.638 46.38Z" fill="#F3F3F8"/>
<path d="M251.655 68.2737C245.989 68.2737 241.307 66.4743 237.61 62.8754C233.913 59.2766 232.06 54.6436 232.052 48.9767C232.052 43.3151 233.902 38.6829 237.602 35.08C241.302 31.477 245.983 29.6776 251.647 29.6816C257.31 29.6816 262.009 31.4811 265.743 35.08C269.476 38.6788 271.342 43.3111 271.341 48.9767C271.341 54.645 269.475 59.2779 265.743 62.8754C262.01 66.473 257.314 68.2724 251.655 68.2737ZM251.655 38.6795C248.956 38.6795 246.882 39.7014 245.433 41.7451C243.984 43.7888 243.259 46.217 243.259 49.0295C243.259 51.842 243.936 54.2193 245.289 56.1616C246.84 58.3731 248.965 59.4776 251.663 59.4749C254.361 59.4721 256.485 58.3677 258.035 56.1616C259.45 54.2207 260.158 51.8433 260.158 49.0295C260.158 46.2156 259.482 43.8382 258.128 41.8974C256.577 39.7508 254.42 38.6781 251.655 38.6795Z" fill="#F3F3F8"/>
<path d="M211.17 68.2737C205.505 68.2737 200.823 66.4743 197.123 62.8754C193.423 59.2766 191.574 54.6436 191.575 48.9767C191.575 43.3151 193.424 38.6829 197.123 35.08C200.821 31.477 205.504 29.6776 211.17 29.6816C216.831 29.6816 221.529 31.4811 225.266 35.08C229.002 38.6788 230.868 43.3111 230.862 48.9767C230.862 54.645 228.997 59.2779 225.266 62.8754C221.535 66.473 216.836 68.2724 211.17 68.2737ZM211.17 38.6795C208.472 38.6795 206.397 39.7014 204.946 41.7451C203.496 43.7888 202.771 46.217 202.772 49.0295C202.772 51.842 203.449 54.2193 204.802 56.1616C206.353 58.3731 208.478 59.4776 211.178 59.4749C213.878 59.4721 216.002 58.3677 217.55 56.1616C218.963 54.2207 219.669 51.8433 219.669 49.0295C219.669 46.2156 218.993 43.8382 217.639 41.8974C216.091 39.7508 213.935 38.6781 211.17 38.6795Z" fill="#F3F3F8"/>
<path d="M340.365 52.3772C340.604 55.0428 344.069 60.7761 349.765 60.7761C355.309 60.7761 357.932 57.5745 358.062 56.2772L369.857 56.1757C368.57 60.1122 363.341 68.4746 349.558 68.4746C343.826 68.4746 338.58 66.6901 334.813 63.1251C331.045 59.56 329.166 54.9129 329.166 49.1776C329.166 43.2453 331.048 38.5299 334.813 35.0311C338.578 31.5324 343.46 29.7831 349.461 29.7831C355.99 29.7831 361.088 31.9486 364.754 36.2797C368.155 40.2765 369.855 45.6417 369.853 52.3751L340.365 52.3772ZM358.66 45.4745C358.193 43.0728 357.193 41.1116 355.662 39.5747C353.927 37.91 351.928 37.0769 349.664 37.0756C347.329 37.0756 345.379 37.8755 343.813 39.4753C342.248 41.0751 341.199 43.0748 340.667 45.4745H358.66Z" fill="#F3F3F8"/>
<path d="M155.471 28.2199L166.583 20.0991L166.441 19.6038C146.389 22.0623 137.271 23.8042 120 33.8172L120.16 34.272L121.533 34.2862C121.407 35.6687 121.188 39.0856 121.468 44.224C119.551 49.7705 121.419 53.5386 123.173 57.6376C123.451 53.3741 123.422 48.7047 122.113 44.0575C121.839 38.9536 122.064 35.5977 122.188 34.2923L133.637 34.4019C133.606 36.6441 133.719 38.886 133.976 41.1137C144.207 44.7092 154.497 41.1016 159.959 32.2377C158.443 30.5384 155.471 28.2199 155.471 28.2199Z" fill="#F3F3F8"/>
</g>
<path d="M489.841 40.1598C487.713 38.9653 486.594 37.9984 486.594 36.6333C486.594 34.8701 488.105 33.7894 490.512 33.7894C493.312 33.7894 495.775 34.9839 495.775 34.9839L497.734 28.8979C497.734 28.8979 495.943 27.476 490.624 27.476C483.235 27.476 478.084 31.7987 478.084 37.8278C478.084 41.2405 480.491 43.8568 483.682 45.7338C486.258 47.2126 487.153 48.2933 487.153 49.829C487.153 51.4785 485.866 52.7867 483.458 52.7867C479.875 52.7867 476.516 50.9097 476.516 50.9097L474.445 56.9957C474.445 56.9957 477.58 59.1002 482.787 59.1002C490.401 59.1002 495.831 55.2893 495.831 48.464C495.943 44.71 493.144 42.0936 489.841 40.1598Z" fill="#F3F3F8"/>
<path d="M520.184 27.3621C516.433 27.3621 513.522 29.1822 511.227 31.9124L511.115 31.8555L514.362 14.5646H505.852L497.622 58.5313H506.076L508.875 43.5155C509.995 37.8277 512.85 34.3581 515.537 34.3581C517.441 34.3581 518.169 35.6663 518.169 37.5433C518.169 38.7378 518.057 40.1597 517.777 41.3541L514.586 58.5882H523.039L526.342 40.8422C526.734 38.9653 526.958 36.747 526.958 35.2113C527.07 30.2629 524.607 27.3621 520.184 27.3621Z" fill="#F3F3F8"/>
<path d="M546.217 27.3622C536.028 27.3622 529.254 36.6902 529.254 47.0989C529.254 53.7536 533.284 59.157 540.898 59.157C550.919 59.157 557.638 50.0565 557.638 39.4203C557.693 33.2206 554.166 27.3622 546.217 27.3622ZM542.074 52.5023C539.163 52.5023 537.987 49.9997 537.987 46.8714C537.987 41.923 540.506 33.9032 545.097 33.9032C548.12 33.9032 549.072 36.5196 549.072 39.0791C549.072 44.4256 546.553 52.5023 542.074 52.5023Z" fill="#F3F3F8"/>
<path d="M579.359 27.3622C573.649 27.3622 570.402 32.4812 570.402 32.4812H570.29L570.794 27.8741H563.292C562.9 31.0024 562.228 35.7233 561.556 39.3066L555.678 70.7033H564.132L566.483 57.9626H566.651C566.651 57.9626 568.386 59.1002 571.634 59.1002C581.599 59.1002 588.093 48.7483 588.093 38.2828C588.093 32.5381 585.574 27.3622 579.359 27.3622ZM571.298 52.6729C569.114 52.6729 567.827 51.4216 567.827 51.4216L569.226 43.4018C570.234 38.0553 572.977 34.4719 575.888 34.4719C578.464 34.4719 579.247 36.9177 579.247 39.1928C579.247 44.71 576 52.6729 571.298 52.6729Z" fill="#F3F3F8"/>
<path d="M600.185 15.0197C597.498 15.0197 595.315 17.181 595.315 20.0249C595.315 22.5844 596.882 24.3477 599.29 24.3477H599.402C602.033 24.3477 604.328 22.5276 604.384 19.3424C604.44 16.7829 602.761 15.0197 600.185 15.0197Z" fill="#F3F3F8"/>
<path d="M588.317 58.5313H596.826L602.593 28.0447H594.027L588.317 58.5313Z" fill="#F3F3F8"/>
<path d="M624.091 27.9879H618.212L618.492 26.5659C618.996 23.6083 620.676 20.9919 623.531 20.9919C625.043 20.9919 626.218 21.4469 626.218 21.4469L627.898 14.7353C627.898 14.7353 626.442 13.9958 623.307 13.9958C620.284 13.9958 617.317 14.849 615.021 16.8398C612.11 19.3424 610.767 22.9257 610.095 26.5659L609.871 27.9879H605.952L604.72 34.472H608.639L604.16 58.5314H612.614L617.093 34.472H622.915L624.091 27.9879Z" fill="#F3F3F8"/>
<path d="M644.469 28.0447C644.469 28.0447 639.15 41.5817 636.799 48.9758H636.687C636.519 46.5869 634.616 28.0447 634.616 28.0447H625.714L630.809 56.0287C630.921 56.6544 630.865 57.0525 630.641 57.4507C629.633 59.3845 628.01 61.2615 626.05 62.6266C624.483 63.821 622.691 64.5604 621.292 65.0723L623.643 72.3527C625.378 71.9546 628.905 70.5326 631.929 67.6887C635.791 63.9916 639.374 58.3607 643.013 50.6253L653.37 28.0447H644.469V28.0447Z" fill="#F3F3F8"/>
<path d="M445.277 8.2512C445.277 8.2512 444.494 8.47871 443.206 8.87686C442.982 8.13744 442.646 7.28427 442.198 6.37422C440.743 3.53031 438.559 1.99461 435.984 1.99461C435.816 1.99461 435.648 1.99461 435.424 2.05148C435.368 1.93773 435.256 1.88085 435.2 1.76709C434.08 0.515776 432.625 -0.0530054 430.889 0.00387273C427.53 0.117629 424.171 2.56339 421.484 6.943C419.581 10.0144 418.125 13.8821 417.733 16.8967C413.87 18.0911 411.183 18.9443 411.127 19.0012C409.168 19.6268 409.112 19.6837 408.888 21.5607C408.72 22.9826 403.569 63.0248 403.569 63.0248L445.893 70.4758V8.19432C445.557 8.19432 445.389 8.2512 445.277 8.2512ZM435.48 11.3226C433.241 12.0052 430.777 12.8014 428.37 13.5409C429.042 10.8676 430.386 8.19432 431.953 6.4311C432.569 5.80544 433.409 5.06602 434.36 4.611C435.312 6.65861 435.536 9.44564 435.48 11.3226ZM430.889 2.33587C431.673 2.33587 432.345 2.50651 432.905 2.84778C432.009 3.3028 431.113 4.04222 430.274 4.89539C428.146 7.22739 426.523 10.8676 425.851 14.3372C423.835 14.9628 421.82 15.5885 419.972 16.1573C421.204 10.697 425.739 2.44963 430.889 2.33587ZM424.395 33.6188C424.619 37.259 434.08 38.0553 434.64 46.6439C435.032 53.4124 431.113 58.0195 425.459 58.3608C418.629 58.8158 414.878 54.7206 414.878 54.7206L416.333 48.464C416.333 48.464 420.084 51.3648 423.108 51.1373C425.067 51.0235 425.795 49.3741 425.739 48.2365C425.459 43.4587 417.733 43.7431 417.229 35.894C416.781 29.2961 421.036 22.6414 430.441 22.0157C434.08 21.7882 435.928 22.6982 435.928 22.6982L433.801 30.8887C433.801 30.8887 431.393 29.7511 428.538 29.9786C424.395 30.263 424.339 32.9363 424.395 33.6188ZM437.719 10.6401C437.719 8.93373 437.496 6.48798 436.712 4.44036C439.287 4.95227 440.519 7.85305 441.078 9.61627C440.071 9.90066 438.951 10.2419 437.719 10.6401Z" fill="#F3F3F8"/>
<path d="M447.181 70.3621L464.76 65.9256C464.76 65.9256 457.202 13.9959 457.146 13.6546C457.09 13.3133 456.81 13.0858 456.53 13.0858C456.25 13.0858 451.324 12.9721 451.324 12.9721C451.324 12.9721 448.3 10.0144 447.181 8.87683V70.3621Z" fill="#F3F3F8"/>
<path fill-rule="evenodd" clip-rule="evenodd" d="M48.5 9C27.7641 9 11 25.7641 11 46.5001C11 67.236 27.7641 84 48.5 84C69.236 84 86 67.236 86 46.5001V9H48.5ZM46.9011 73.5469C33.1924 72.7639 22.1845 61.7561 21.4014 48.0475H46.9011V73.5469ZM50.0475 48.0989H75.5469C74.7639 61.8079 63.7561 72.8158 50.0475 73.5987V48.0989ZM50.0475 19.3679H75.5809V44.901H50.0475V19.3679Z" fill="white"/>
<defs>
<clipPath id="clip0">
<rect width="249.857" height="63.9879" fill="white" transform="translate(120 4.48682)"/>
</clipPath>
</defs>
</svg>
