<svg width="249" height="249" viewBox="0 0 249 249" fill="none" xmlns="http://www.w3.org/2000/svg">
<path fill-rule="evenodd" clip-rule="evenodd" d="M98.2765 125.579V221.541C98.2765 222.921 99.4013 224.041 100.789 224.041H136.617C138.005 224.041 139.13 222.921 139.13 221.541V124.016H165.104C166.41 124.016 167.498 123.021 167.608 121.727L170.106 92.3424C170.23 90.8841 169.073 89.632 167.602 89.632H139.13V68.7844C139.13 63.8982 143.112 59.9374 148.024 59.9374H168.043C169.431 59.9374 170.556 58.8182 170.556 57.4376V28.0531C170.556 26.673 169.431 25.5537 168.043 25.5537H134.217C114.368 25.5537 98.2765 41.5589 98.2765 61.3027V89.632H80.3624C78.9744 89.632 77.8496 90.7512 77.8496 92.1318V121.516C77.8496 122.896 78.9744 124.016 80.3624 124.016H98.2765V125.579H98.2765Z" fill="white"/>
</svg>
