<svg width="250" height="249" viewBox="0 0 250 249" fill="none" xmlns="http://www.w3.org/2000/svg">
<path d="M177.239 83.7551C183.675 83.7551 188.892 78.5379 188.892 72.1022C188.892 65.6664 183.675 60.4492 177.239 60.4492C170.803 60.4492 165.586 65.6664 165.586 72.1022C165.586 78.5379 170.803 83.7551 177.239 83.7551Z" fill="white"/>
<path d="M125.432 75.3931C98.4412 75.3931 76.481 97.3526 76.481 124.344C76.481 151.335 98.4412 173.295 125.432 173.295C152.424 173.295 174.382 151.335 174.382 124.344C174.382 97.3526 152.424 75.3931 125.432 75.3931ZM125.432 155.7C108.142 155.7 94.0752 141.634 94.0752 124.344C94.0752 107.054 108.142 92.9877 125.432 92.9877C142.723 92.9877 156.788 107.054 156.788 124.344C156.788 141.634 142.723 155.7 125.432 155.7Z" fill="white"/>
<path d="M164.293 223.729H84.9358C52.0142 223.729 25.2316 196.946 25.2316 164.024V84.6637C25.2316 51.7417 52.0141 24.9595 84.9358 24.9595H164.293C197.215 24.9595 224.001 51.7417 224.001 84.6637V164.024C224.001 196.946 197.215 223.729 164.293 223.729ZM84.9358 43.6593C62.3244 43.6593 43.9313 62.0523 43.9313 84.6637V164.024C43.9313 186.636 62.3244 205.029 84.9358 205.029H164.293C186.905 205.029 205.301 186.636 205.301 164.024V84.6637C205.301 62.0523 186.905 43.6593 164.293 43.6593H84.9358V43.6593Z" fill="white"/>
</svg>
